<svg xmlns="http://www.w3.org/2000/svg" xmlns:xlink="http://www.w3.org/1999/xlink" width="32" height="32" viewBox="0 0 32 32">
  <defs>
    <linearGradient id="linear-gradient" x1="0.174" y1="0.065" x2="0.865" y2="0.818" gradientUnits="objectBoundingBox">
      <stop offset="0" stop-color="#c8c7e2"/>
      <stop offset="0.307" stop-color="#f6f5fb"/>
      <stop offset="0.626" stop-color="#faf9fd"/>
      <stop offset="1" stop-color="#c8c7e2"/>
      <stop offset="1"/>
    </linearGradient>
    <clipPath id="clip-Omnissa_Favicon_v3_dark">
      <rect width="32" height="32"/>
    </clipPath>
  </defs>
  <g id="Omnissa_Favicon_v3_dark" clip-path="url(#clip-Omnissa_Favicon_v3_dark)">
    <g id="Group_66269" data-name="Group 66269" transform="translate(11377 21815)">
      <g id="Group_66267" data-name="Group 66267" transform="translate(-11440 -21866.305)">
        <path id="Union_22" data-name="Union 22" d="M11568.316,21908.789a11.392,11.392,0,0,1,0-16.07,11.23,11.23,0,0,1,1.7-1.381,11.349,11.349,0,0,0,15.756,15.756,11.51,11.51,0,0,1-1.38,1.7,11.389,11.389,0,0,1-16.075,0Zm16.075-16.07a11.382,11.382,0,0,0-14.376-1.381,11.358,11.358,0,1,1,17.455,14.371,10.974,10.974,0,0,1-1.7,1.385A11.329,11.329,0,0,0,11584.392,21892.719Z" transform="translate(-11499 -21832)" fill="url(#linear-gradient)"/>
      </g>
    </g>
  </g>
</svg>
