<?xml version="1.0" encoding="UTF-8"?>
<!DOCTYPE svg PUBLIC "-//W3C//DTD SVG 1.1//EN" "http://www.w3.org/Graphics/SVG/1.1/DTD/svg11.dtd">
<svg xmlns="http://www.w3.org/2000/svg" version="1.1" width="1250px" height="1250px" style="shape-rendering:geometricPrecision; text-rendering:geometricPrecision; image-rendering:optimizeQuality; fill-rule:evenodd; clip-rule:evenodd" xmlns:xlink="http://www.w3.org/1999/xlink">
<g><path style="opacity:0.984" fill="#ffffff" d="M 583.5,-0.5 C 584.167,-0.5 584.833,-0.5 585.5,-0.5C 585.833,19.178 585.5,38.8446 584.5,58.5C 430.755,146.788 277.255,235.454 124,324.5C 123.667,501.5 123.333,678.5 123,855.5C 106.581,864.96 90.0811,874.293 73.5,883.5C 72.3333,687.168 72.1667,490.834 73,294.5C 243.311,196.266 413.478,97.9328 583.5,-0.5 Z"/></g>
<g><path style="opacity:0.994" fill="#ffffff" d="M 663.5,-0.5 C 664.167,-0.5 664.833,-0.5 665.5,-0.5C 835.522,97.9328 1005.69,196.266 1176,294.5C 1176.83,491.168 1176.67,687.834 1175.5,884.5C 1159.17,875.167 1142.83,865.833 1126.5,856.5C 1125.67,679.168 1125.17,501.834 1125,324.5C 971.745,235.454 818.245,146.788 664.5,58.5C 663.5,38.8446 663.167,19.178 663.5,-0.5 Z"/></g>
<g><path style="opacity:0.989" fill="#ffffff" d="M 583.5,165.5 C 584.832,174.977 585.499,184.81 585.5,195C 585.167,204.833 584.833,214.667 584.5,224.5C 478.755,285.121 373.255,346.121 268,407.5C 267.833,529.501 267.333,651.501 266.5,773.5C 250.167,782.833 233.833,792.167 217.5,801.5C 216.333,660.168 216.167,518.835 217,377.5C 339.311,306.933 461.478,236.266 583.5,165.5 Z"/></g>
<g><path style="opacity:0.99" fill="#ffffff" d="M 663.5,165.5 C 786.523,235.764 909.357,306.431 1032,377.5C 1032.67,519.167 1032.67,660.833 1032,802.5C 1015.17,793.086 998.503,783.419 982,773.5C 981.667,651.5 981.333,529.5 981,407.5C 875.745,346.121 770.245,285.121 664.5,224.5C 663.5,204.845 663.167,185.178 663.5,165.5 Z"/></g>
<g><path style="opacity:0.989" fill="#ffffff" d="M 303.5,840.5 C 410.646,901.573 517.646,962.906 624.5,1024.5C 731.044,963.309 837.544,901.976 944,840.5C 961.282,849.885 978.115,859.885 994.5,870.5C 871.456,942.022 748.122,1013.02 624.5,1083.5C 500.544,1012.85 376.878,941.688 253.5,870C 270.065,859.888 286.732,850.055 303.5,840.5 Z"/></g>
<g><path style="opacity:0.988" fill="#ffffff" d="M 626.5,1249.5 C 625.167,1249.5 623.833,1249.5 622.5,1249.5C 451.077,1150.6 279.743,1051.43 108.5,952C 125.537,942.483 142.537,932.983 159.5,923.5C 314.337,1012.75 469.337,1101.75 624.5,1190.5C 779.456,1102.02 934.122,1013.02 1088.5,923.5C 1105.83,932.828 1122.83,942.661 1139.5,953C 968.437,1051.86 797.437,1150.69 626.5,1249.5 Z"/></g>
</svg>
