<?xml version="1.0" encoding="UTF-8"?>
<svg id="Layer_1" data-name="Layer 1" xmlns="http://www.w3.org/2000/svg" version="1.1" viewBox="0 0 477.1 85.1">
  <defs>
    <style>
      .cls-1 {
        fill: #fff;
        stroke-width: 0px;
      }
    </style>
  </defs>
  <path class="cls-1" d="M265.5,6.8c0,3.7-3,6.8-6.8,6.8s-6.8-3-6.8-6.8,3-6.8,6.8-6.8,6.8,3,6.8,6.8ZM74.1,21.6v61.4h11.8v-35c0-8,1.6-14.2,4.8-18.5,3.2-4.3,7.8-6.5,13.6-6.5s8.3,1.6,10.7,4.7c2.4,3.1,3.6,7.6,3.6,13.5v41.9h11.9v-40.1c0-6.1,1.7-11,5-14.6,3.3-3.6,7.8-5.4,13.5-5.4s8.2,1.6,10.5,4.7c2.3,3.1,3.5,7.6,3.5,13.4v41.9h11.9v-41.3c0-3.2-.5-6.2-1.6-8.8-1-2.6-2.5-4.9-4.4-6.8-1.9-1.9-4.2-3.3-6.8-4.3-2.6-1-5.6-1.5-8.9-1.5-5.3,0-10,1.2-14.1,3.5-4.1,2.3-7.4,5.6-9.8,9.9-1.4-4.2-3.9-7.5-7.5-9.9s-7.9-3.5-13-3.5c-10.4,0-18.2,4.5-23.3,13.4v-12.2h-11.4ZM196.4,21.6h-11.8v61.4h11.8v-35c-.1-7.7,1.6-13.8,4.9-18.3,3.3-4.5,7.9-6.8,13.6-6.8s8.2,1.6,10.7,4.7c2.5,3.1,3.7,7.6,3.7,13.4v41.9h11.8v-41.3c0-6.4-2-11.6-6-15.5-4-3.9-9.3-5.8-16-5.8-9.8,0-17.4,4.3-22.8,13v-11.8ZM252.8,83h11.8V21.6h-11.8v61.4ZM276.8,44.2c.8,2,2.1,3.8,4,5.5,1.9,1.7,4.3,3.2,7.3,4.6,3,1.4,6.8,2.8,11.2,4.2,1.9.6,4,1.2,6.3,2,2.3.7,4.5,1.7,6.5,2.7,2,1.1,3.7,2.4,5.1,3.9,1.4,1.5,2,3.4,2,5.6s-1.5,5.4-4.4,7.3c-2.9,1.9-6.8,2.9-11.5,2.9s-12.2-1.9-17.4-5.6c-5.1-3.7-8.9-9-11.3-15.8v16c2.6,2.4,6.3,4.1,11,5.1s10.1,1.6,16.2,1.6,14-1.6,18.2-4.7c4.2-3.1,6.3-7.5,6.3-13.2s-.7-6.5-2.2-8.7c-1.5-2.3-3.5-4.2-6-5.7-2.5-1.5-5.3-2.8-8.5-3.8-3.2-1-6.5-2-9.9-3.1-6.1-1.9-10.5-4-13.2-6.2-2.7-2.2-4-4.8-4-7.7s1.3-5.2,3.8-6.9c2.6-1.7,6.1-2.5,10.5-2.5s10.9,1.7,15.6,5.1c4.7,3.4,8.3,8.6,11,15.4v-15.3c-2.4-2.3-5.9-4-10.5-5.1-4.6-1.1-9.7-1.6-15.1-1.6-15,0-22.4,5.7-22.4,17s.4,4.8,1.2,6.8ZM337.1,44.2c.8,2,2.1,3.8,4,5.5,1.9,1.7,4.3,3.2,7.3,4.6,3,1.4,6.8,2.8,11.2,4.2,1.9.6,4,1.2,6.3,2,2.3.7,4.5,1.7,6.5,2.7,2,1.1,3.7,2.4,5.1,3.9,1.4,1.5,2,3.4,2,5.6s-1.5,5.4-4.4,7.3c-2.9,1.9-6.8,2.9-11.5,2.9s-12.2-1.9-17.4-5.6c-5.1-3.7-8.9-9-11.3-15.8v16c2.6,2.4,6.3,4.1,11,5.1,4.7,1,10.1,1.6,16.2,1.6s14-1.6,18.2-4.7,6.3-7.5,6.3-13.2-.7-6.5-2.2-8.7c-1.5-2.3-3.5-4.2-6-5.7-2.5-1.5-5.3-2.8-8.5-3.8-3.2-1-6.5-2-9.9-3.1-6.1-1.9-10.5-4-13.2-6.2-2.7-2.2-4-4.8-4-7.7s1.3-5.2,3.8-6.9c2.6-1.7,6.1-2.5,10.5-2.5s10.9,1.7,15.6,5.1c4.7,3.4,8.3,8.6,11,15.4v-15.3c-2.4-2.3-5.9-4-10.5-5.1-4.6-1.1-9.7-1.6-15.1-1.6-15,0-22.4,5.7-22.4,17s.4,4.8,1.2,6.8ZM416.5,84.2c4.9,0,9.6-1,14.1-2.9,4.5-1.9,8.1-4.6,10.8-7.9.3,3.7,1.4,6.4,3.2,8.2,1.8,1.7,4.4,2.6,8,2.6,5,0,8.2-2.1,9.5-6.2-1.2,1.6-2.6,2.4-4.3,2.4-3.1,0-4.6-2.5-4.6-7.4v-31.3c0-6.9-2.3-12.2-6.8-15.9-4.5-3.6-11.2-5.5-19.8-5.5s-10.3.7-14.9,2.1c-4.5,1.4-8.2,3.5-11,6.2v16c1.2-3.6,2.8-6.9,4.6-9.7,1.8-2.9,3.8-5.3,6-7.3,2.1-2,4.4-3.5,6.9-4.5,2.4-1,4.9-1.6,7.4-1.6,5.5,0,9.5,1.5,12.1,4.5s3.9,7.6,3.9,13.8c-1.9,2.5-4.3,4.4-7.3,5.9-3,1.4-6.2,2.7-9.6,3.7-3.4,1-6.9,1.9-10.3,2.8-3.4.9-6.6,2-9.4,3.3-2.8,1.3-5.1,3-6.8,5.1s-2.6,4.9-2.6,8.5c0,10.1,7,15.1,21.1,15.1ZM409.5,60.6c1.1-1.9,2.6-3.4,4.5-4.5,1.9-1.2,4-2.1,6.3-2.9s4.8-1.6,7.3-2.5c2.5-.9,4.9-2,7.4-3.4,2.4-1.4,4.6-3.3,6.5-5.8v21.2c0,5.7-1.8,10.2-5.3,13.6-3.6,3.3-8.4,5-14.6,5s-7.5-1.2-10-3.5c-2.4-2.4-3.7-5.6-3.7-9.6s.6-5.8,1.7-7.6ZM16.3,68.9c-9.9-9.9-11.1-25.2-3.5-36.4-1.5,1-3,2.2-4.3,3.5-11.2,11.2-11.2,29.5,0,40.7,11.2,11.2,29.5,11.2,40.7,0,1.3-1.3,2.5-2.8,3.5-4.3-11.2,7.5-26.5,6.4-36.4-3.5ZM16.3,28.1c-1.3,1.3-2.5,2.8-3.5,4.3,11.2-7.5,26.5-6.4,36.4,3.5,9.9,9.9,11.1,25.2,3.5,36.4,1.5-1,3-2.2,4.3-3.5,11.2-11.2,11.2-29.5,0-40.7-11.2-11.2-29.5-11.2-40.7,0ZM457.1,21.2h3.3v8.7h1.7v-8.7h3.3v-1.5h-8.3v1.5ZM475.9,19.7l-3.9,6.3-3.9-6.3h-1.2v10.2h1.7v-6.5l2.8,4.6h1.2l2.8-4.6v6.5h1.7v-10.2h-1.2Z"/>
</svg>