<svg xmlns="http://www.w3.org/2000/svg" viewBox="0 0 16 16"><polygon points="14.56 12.2 8 16 1.43 12.2 2.07 11.83 8 15.26 13.92 11.84 14.56 12.2" fill="#ec7700"/><polygon points="15.04 3.78 15.04 11.32 14.4 10.96 14.4 4.15 8.5 0.74 8.5 0 15.04 3.78" fill="#00c1d5"/><polygon points="7.5 0 7.5 0.74 1.6 4.15 1.6 10.95 0.96 11.31 0.96 3.78 7.5 0" fill="#78be20"/><path d="M13.2,4.85v5.42l-.64-.37V5.22L8.5,2.87V2.13Zm-1.12,5.93L8,13.14,3.91,10.77l-.64.37L8,13.87l4.72-2.73ZM2.8,4.85v5.41l.64-.37V5.22L7.5,2.86V2.13Z" fill="#1d428a"/></svg>